<?xml version="1.0" encoding="us-ascii" standalone="no"?><svg xmlns="http://www.w3.org/2000/svg" xmlns:xlink="http://www.w3.org/1999/xlink" contentStyleType="text/css" height="930px" preserveAspectRatio="none" style="width:1143px;height:930px;background:#FFFFFF;" version="1.1" viewBox="0 0 1143 930" width="1143px" zoomAndPan="magnify"><defs/><g><rect fill="#D5E8D4" height="806.7891" style="stroke:#181818;stroke-width:1.0;" width="10" x="123.5" y="98.4297"/><rect fill="#FFF2CC" height="14" style="stroke:#181818;stroke-width:1.0;" width="10" x="264.5" y="169.6953"/><rect fill="#FFF2CC" height="621.125" style="stroke:#181818;stroke-width:1.0;" width="10" x="367.5" y="212.8281"/><rect fill="#F8CECC" height="446.5938" style="stroke:#181818;stroke-width:1.0;" width="10" x="470.5" y="241.9609"/><rect fill="#D5E8D4" height="403.4609" style="stroke:#181818;stroke-width:1.0;" width="10" x="573.5" y="271.0938"/><rect fill="#DAE8FC" height="29.1328" style="stroke:#181818;stroke-width:1.0;" width="10" x="717.5" y="300.2266"/><rect fill="#DAE8FC" height="14" style="stroke:#181818;stroke-width:1.0;" width="10" x="717.5" y="646.5547"/><rect fill="#F8CECC" height="388.3281" style="stroke:#181818;stroke-width:1.0;" width="10" x="784" y="358.4922"/><rect fill="#F8CECC" height="14" style="stroke:#181818;stroke-width:1.0;" width="10" x="872" y="531.1563"/><rect fill="#D5E8D4" height="44" style="stroke:#181818;stroke-width:1.0;" width="10" x="974" y="775.9531"/><rect fill="#DAE8FC" height="30" style="stroke:#181818;stroke-width:1.0;" width="10" x="1081.5" y="789.9531"/><line style="stroke:#181818;stroke-width:0.5;stroke-dasharray:5.0,5.0;" x1="36" x2="36" y1="67.2969" y2="923.2188"/><line style="stroke:#181818;stroke-width:0.5;stroke-dasharray:5.0,5.0;" x1="128" x2="128" y1="67.2969" y2="923.2188"/><line style="stroke:#181818;stroke-width:0.5;stroke-dasharray:5.0,5.0;" x1="269" x2="269" y1="67.2969" y2="923.2188"/><line style="stroke:#181818;stroke-width:0.5;stroke-dasharray:5.0,5.0;" x1="372" x2="372" y1="67.2969" y2="923.2188"/><line style="stroke:#181818;stroke-width:0.5;stroke-dasharray:5.0,5.0;" x1="475" x2="475" y1="67.2969" y2="923.2188"/><line style="stroke:#181818;stroke-width:0.5;stroke-dasharray:5.0,5.0;" x1="578" x2="578" y1="67.2969" y2="923.2188"/><line style="stroke:#181818;stroke-width:0.5;stroke-dasharray:5.0,5.0;" x1="722.5" x2="722.5" y1="67.2969" y2="923.2188"/><line style="stroke:#181818;stroke-width:0.5;stroke-dasharray:5.0,5.0;" x1="788.5" x2="788.5" y1="67.2969" y2="923.2188"/><line style="stroke:#181818;stroke-width:0.5;stroke-dasharray:5.0,5.0;" x1="876.5" x2="876.5" y1="67.2969" y2="923.2188"/><line style="stroke:#181818;stroke-width:0.5;stroke-dasharray:5.0,5.0;" x1="978.5" x2="978.5" y1="67.2969" y2="923.2188"/><line style="stroke:#181818;stroke-width:0.5;stroke-dasharray:5.0,5.0;" x1="1086.5" x2="1086.5" y1="67.2969" y2="923.2188"/><rect fill="#D5E8D4" height="30.2969" rx="2.5" ry="2.5" style="stroke:#181818;stroke-width:0.5;" width="63" x="5" y="36"/><text fill="#000000" font-family="sans-serif" font-size="14" lengthAdjust="spacing" textLength="49" x="12" y="55.9951">Router</text><rect fill="#D5E8D4" height="46.5938" rx="2.5" ry="2.5" style="stroke:#181818;stroke-width:0.5;" width="87" x="85" y="19.7031"/><text fill="#000000" font-family="sans-serif" font-size="14" lengthAdjust="spacing" textLength="33" x="112" y="39.6982">Task</text><text fill="#000000" font-family="sans-serif" font-size="14" lengthAdjust="spacing" textLength="73" x="92" y="55.9951">Controller</text><rect fill="#FFF2CC" height="46.5938" rx="2.5" ry="2.5" style="stroke:#181818;stroke-width:0.5;" width="93" x="223" y="19.7031"/><text fill="#000000" font-family="sans-serif" font-size="14" lengthAdjust="spacing" textLength="79" x="230" y="39.6982">AssignTask</text><text fill="#000000" font-family="sans-serif" font-size="14" lengthAdjust="spacing" textLength="73" x="233" y="55.9951">Command</text><rect fill="#FFF2CC" height="46.5938" rx="2.5" ry="2.5" style="stroke:#181818;stroke-width:0.5;" width="93" x="326" y="19.7031"/><text fill="#000000" font-family="sans-serif" font-size="14" lengthAdjust="spacing" textLength="79" x="333" y="39.6982">AssignTask</text><text fill="#000000" font-family="sans-serif" font-size="14" lengthAdjust="spacing" textLength="55" x="345" y="55.9951">Handler</text><rect fill="#F8CECC" height="46.5938" rx="2.5" ry="2.5" style="stroke:#181818;stroke-width:0.5;" width="93" x="429" y="19.7031"/><text fill="#000000" font-family="sans-serif" font-size="14" lengthAdjust="spacing" textLength="33" x="459" y="39.6982">Task</text><text fill="#000000" font-family="sans-serif" font-size="14" lengthAdjust="spacing" textLength="79" x="436" y="55.9951">Repository</text><rect fill="#D5E8D4" height="46.5938" rx="2.5" ry="2.5" style="stroke:#181818;stroke-width:0.5;" width="93" x="532" y="19.7031"/><text fill="#000000" font-family="sans-serif" font-size="14" lengthAdjust="spacing" textLength="59" x="549" y="39.6982">Sql Task</text><text fill="#000000" font-family="sans-serif" font-size="14" lengthAdjust="spacing" textLength="79" x="539" y="55.9951">Repository</text><text fill="#000000" font-family="sans-serif" font-size="14" lengthAdjust="spacing" textLength="68" x="685.5" y="63.9951">Database</text><path d="M704.5,15 C704.5,5 722.5,5 722.5,5 C722.5,5 740.5,5 740.5,15 L740.5,41 C740.5,51 722.5,51 722.5,51 C722.5,51 704.5,51 704.5,41 L704.5,15 " fill="#DAE8FC" style="stroke:#181818;stroke-width:1.5;"/><path d="M704.5,15 C704.5,25 722.5,25 722.5,25 C722.5,25 740.5,25 740.5,15 " fill="none" style="stroke:#181818;stroke-width:1.5;"/><text fill="#000000" font-family="sans-serif" font-size="14" lengthAdjust="spacing" textLength="33" x="769.5" y="63.9951">Task</text><ellipse cx="789" cy="35" fill="#F8CECC" rx="12" ry="12" style="stroke:#181818;stroke-width:0.5;"/><line style="stroke:#181818;stroke-width:0.5;" x1="777" x2="801" y1="49" y2="49"/><text fill="#000000" font-family="sans-serif" font-size="14" lengthAdjust="spacing" textLength="85" x="831.5" y="63.9951">Assignment</text><ellipse cx="877" cy="35" fill="#F8CECC" rx="12" ry="12" style="stroke:#181818;stroke-width:0.5;"/><line style="stroke:#181818;stroke-width:0.5;" x1="865" x2="889" y1="49" y2="49"/><rect fill="#D5E8D4" height="46.5938" rx="2.5" ry="2.5" style="stroke:#181818;stroke-width:0.5;" width="93" x="932.5" y="19.7031"/><text fill="#000000" font-family="sans-serif" font-size="14" lengthAdjust="spacing" textLength="42" x="958" y="39.6982">Event</text><text fill="#000000" font-family="sans-serif" font-size="14" lengthAdjust="spacing" textLength="79" x="939.5" y="55.9951">Dispatcher</text><rect fill="#DAE8FC" height="30.2969" style="stroke:#181818;stroke-width:0.5;" width="98" x="1039.5" y="32"/><rect fill="#DAE8FC" height="30.2969" style="stroke:#181818;stroke-width:0.5;" width="98" x="1035.5" y="36"/><text fill="#000000" font-family="sans-serif" font-size="14" lengthAdjust="spacing" textLength="84" x="1042.5" y="55.9951">Subscribers</text><rect fill="#D5E8D4" height="806.7891" style="stroke:#181818;stroke-width:1.0;" width="10" x="123.5" y="98.4297"/><rect fill="#FFF2CC" height="14" style="stroke:#181818;stroke-width:1.0;" width="10" x="264.5" y="169.6953"/><rect fill="#FFF2CC" height="621.125" style="stroke:#181818;stroke-width:1.0;" width="10" x="367.5" y="212.8281"/><rect fill="#F8CECC" height="446.5938" style="stroke:#181818;stroke-width:1.0;" width="10" x="470.5" y="241.9609"/><rect fill="#D5E8D4" height="403.4609" style="stroke:#181818;stroke-width:1.0;" width="10" x="573.5" y="271.0938"/><rect fill="#DAE8FC" height="29.1328" style="stroke:#181818;stroke-width:1.0;" width="10" x="717.5" y="300.2266"/><rect fill="#DAE8FC" height="14" style="stroke:#181818;stroke-width:1.0;" width="10" x="717.5" y="646.5547"/><rect fill="#F8CECC" height="388.3281" style="stroke:#181818;stroke-width:1.0;" width="10" x="784" y="358.4922"/><rect fill="#F8CECC" height="14" style="stroke:#181818;stroke-width:1.0;" width="10" x="872" y="531.1563"/><rect fill="#D5E8D4" height="44" style="stroke:#181818;stroke-width:1.0;" width="10" x="974" y="775.9531"/><rect fill="#DAE8FC" height="30" style="stroke:#181818;stroke-width:1.0;" width="10" x="1081.5" y="789.9531"/><polygon fill="#181818" points="111.5,94.4297,121.5,98.4297,111.5,102.4297,115.5,98.4297" style="stroke:#181818;stroke-width:1.0;"/><line style="stroke:#181818;stroke-width:1.0;" x1="36.5" x2="117.5" y1="98.4297" y2="98.4297"/><text fill="#000000" font-family="sans-serif" font-size="13" lengthAdjust="spacing" textLength="53" x="43.5" y="93.3638">Request</text><line style="stroke:#181818;stroke-width:1.0;" x1="133.5" x2="175.5" y1="127.5625" y2="127.5625"/><line style="stroke:#181818;stroke-width:1.0;" x1="175.5" x2="175.5" y1="127.5625" y2="140.5625"/><line style="stroke:#181818;stroke-width:1.0;" x1="134.5" x2="175.5" y1="140.5625" y2="140.5625"/><polygon fill="#181818" points="144.5,136.5625,134.5,140.5625,144.5,144.5625,140.5,140.5625" style="stroke:#181818;stroke-width:1.0;"/><text fill="#000000" font-family="sans-serif" font-size="13" lengthAdjust="spacing" textLength="93" x="140.5" y="122.4966">validateInput()</text><polygon fill="#181818" points="252.5,165.6953,262.5,169.6953,252.5,173.6953,256.5,169.6953" style="stroke:#181818;stroke-width:1.0;"/><line style="stroke:#181818;stroke-width:1.0;" x1="133.5" x2="258.5" y1="169.6953" y2="169.6953"/><text fill="#000000" font-family="sans-serif" font-size="13" lengthAdjust="spacing" textLength="51" x="140.5" y="164.6294">create()</text><polygon fill="#181818" points="144.5,179.6953,134.5,183.6953,144.5,187.6953,140.5,183.6953" style="stroke:#181818;stroke-width:1.0;"/><line style="stroke:#181818;stroke-width:1.0;stroke-dasharray:2.0,2.0;" x1="138.5" x2="268.5" y1="183.6953" y2="183.6953"/><polygon fill="#181818" points="355.5,208.8281,365.5,212.8281,355.5,216.8281,359.5,212.8281" style="stroke:#181818;stroke-width:1.0;"/><line style="stroke:#181818;stroke-width:1.0;" x1="133.5" x2="361.5" y1="212.8281" y2="212.8281"/><text fill="#000000" font-family="sans-serif" font-size="13" lengthAdjust="spacing" textLength="127" x="140.5" y="207.7622">execute(command)</text><polygon fill="#181818" points="458.5,237.9609,468.5,241.9609,458.5,245.9609,462.5,241.9609" style="stroke:#181818;stroke-width:1.0;"/><line style="stroke:#181818;stroke-width:1.0;" x1="377.5" x2="464.5" y1="241.9609" y2="241.9609"/><text fill="#000000" font-family="sans-serif" font-size="13" lengthAdjust="spacing" textLength="61" x="384.5" y="236.895">findById()</text><polygon fill="#181818" points="561.5,267.0938,571.5,271.0938,561.5,275.0938,565.5,271.0938" style="stroke:#181818;stroke-width:1.0;"/><line style="stroke:#181818;stroke-width:1.0;" x1="480.5" x2="567.5" y1="271.0938" y2="271.0938"/><text fill="#000000" font-family="sans-serif" font-size="13" lengthAdjust="spacing" textLength="61" x="487.5" y="266.0278">findById()</text><polygon fill="#181818" points="705.5,296.2266,715.5,300.2266,705.5,304.2266,709.5,300.2266" style="stroke:#181818;stroke-width:1.0;"/><line style="stroke:#181818;stroke-width:1.0;" x1="583.5" x2="711.5" y1="300.2266" y2="300.2266"/><text fill="#000000" font-family="sans-serif" font-size="13" lengthAdjust="spacing" textLength="115" x="590.5" y="295.1606">SELECT * FROM ...</text><polygon fill="#181818" points="594.5,325.3594,584.5,329.3594,594.5,333.3594,590.5,329.3594" style="stroke:#181818;stroke-width:1.0;"/><line style="stroke:#181818;stroke-width:1.0;stroke-dasharray:2.0,2.0;" x1="588.5" x2="721.5" y1="329.3594" y2="329.3594"/><text fill="#000000" font-family="sans-serif" font-size="13" lengthAdjust="spacing" textLength="31" x="600.5" y="324.2935">rows</text><polygon fill="#181818" points="772,354.4922,782,358.4922,772,362.4922,776,358.4922" style="stroke:#181818;stroke-width:1.0;"/><line style="stroke:#181818;stroke-width:1.0;" x1="583.5" x2="778" y1="358.4922" y2="358.4922"/><text fill="#000000" font-family="sans-serif" font-size="13" lengthAdjust="spacing" textLength="115" x="590.5" y="353.4263">fromPersistence()</text><polygon fill="#181818" points="594.5,368.4922,584.5,372.4922,594.5,376.4922,590.5,372.4922" style="stroke:#181818;stroke-width:1.0;"/><line style="stroke:#181818;stroke-width:1.0;" x1="588.5" x2="783" y1="372.4922" y2="372.4922"/><polygon fill="#181818" points="491.5,397.625,481.5,401.625,491.5,405.625,487.5,401.625" style="stroke:#181818;stroke-width:1.0;"/><line style="stroke:#181818;stroke-width:1.0;" x1="485.5" x2="572.5" y1="401.625" y2="401.625"/><text fill="#000000" font-family="sans-serif" font-size="13" lengthAdjust="spacing" textLength="30" x="497.5" y="396.5591">Task</text><polygon fill="#181818" points="388.5,426.7578,378.5,430.7578,388.5,434.7578,384.5,430.7578" style="stroke:#181818;stroke-width:1.0;"/><line style="stroke:#181818;stroke-width:1.0;" x1="382.5" x2="469.5" y1="430.7578" y2="430.7578"/><text fill="#000000" font-family="sans-serif" font-size="13" lengthAdjust="spacing" textLength="30" x="394.5" y="425.6919">Task</text><polygon fill="#181818" points="772,455.8906,782,459.8906,772,463.8906,776,459.8906" style="stroke:#181818;stroke-width:1.0;"/><line style="stroke:#181818;stroke-width:1.0;" x1="377.5" x2="778" y1="459.8906" y2="459.8906"/><text fill="#000000" font-family="sans-serif" font-size="13" lengthAdjust="spacing" textLength="51" x="384.5" y="454.8247">assign()</text><line style="stroke:#181818;stroke-width:1.0;" x1="794" x2="836" y1="489.0234" y2="489.0234"/><line style="stroke:#181818;stroke-width:1.0;" x1="836" x2="836" y1="489.0234" y2="502.0234"/><line style="stroke:#181818;stroke-width:1.0;" x1="795" x2="836" y1="502.0234" y2="502.0234"/><polygon fill="#181818" points="805,498.0234,795,502.0234,805,506.0234,801,502.0234" style="stroke:#181818;stroke-width:1.0;"/><text fill="#000000" font-family="sans-serif" font-size="13" lengthAdjust="spacing" textLength="61" x="801" y="483.9575">validate()</text><polygon fill="#181818" points="860,527.1563,870,531.1563,860,535.1563,864,531.1563" style="stroke:#181818;stroke-width:1.0;"/><line style="stroke:#181818;stroke-width:1.0;" x1="794" x2="866" y1="531.1563" y2="531.1563"/><text fill="#000000" font-family="sans-serif" font-size="13" lengthAdjust="spacing" textLength="59" x="801" y="526.0903">register()</text><polygon fill="#181818" points="805,541.1563,795,545.1563,805,549.1563,801,545.1563" style="stroke:#181818;stroke-width:1.0;"/><line style="stroke:#181818;stroke-width:1.0;stroke-dasharray:2.0,2.0;" x1="799" x2="876" y1="545.1563" y2="545.1563"/><polygon fill="#181818" points="388.5,555.1563,378.5,559.1563,388.5,563.1563,384.5,559.1563" style="stroke:#181818;stroke-width:1.0;"/><line style="stroke:#181818;stroke-width:1.0;" x1="382.5" x2="783" y1="559.1563" y2="559.1563"/><polygon fill="#181818" points="458.5,584.2891,468.5,588.2891,458.5,592.2891,462.5,588.2891" style="stroke:#181818;stroke-width:1.0;"/><line style="stroke:#181818;stroke-width:1.0;" x1="377.5" x2="464.5" y1="588.2891" y2="588.2891"/><text fill="#000000" font-family="sans-serif" font-size="13" lengthAdjust="spacing" textLength="41" x="384.5" y="583.2231">save()</text><polygon fill="#181818" points="561.5,613.4219,571.5,617.4219,561.5,621.4219,565.5,617.4219" style="stroke:#181818;stroke-width:1.0;"/><line style="stroke:#181818;stroke-width:1.0;" x1="480.5" x2="567.5" y1="617.4219" y2="617.4219"/><text fill="#000000" font-family="sans-serif" font-size="13" lengthAdjust="spacing" textLength="41" x="487.5" y="612.356">save()</text><polygon fill="#181818" points="705.5,642.5547,715.5,646.5547,705.5,650.5547,709.5,646.5547" style="stroke:#181818;stroke-width:1.0;"/><line style="stroke:#181818;stroke-width:1.0;" x1="583.5" x2="711.5" y1="646.5547" y2="646.5547"/><text fill="#000000" font-family="sans-serif" font-size="13" lengthAdjust="spacing" textLength="68" x="590.5" y="641.4888">UPDATE ...</text><polygon fill="#181818" points="594.5,656.5547,584.5,660.5547,594.5,664.5547,590.5,660.5547" style="stroke:#181818;stroke-width:1.0;"/><line style="stroke:#181818;stroke-width:1.0;stroke-dasharray:2.0,2.0;" x1="588.5" x2="721.5" y1="660.5547" y2="660.5547"/><polygon fill="#181818" points="491.5,670.5547,481.5,674.5547,491.5,678.5547,487.5,674.5547" style="stroke:#181818;stroke-width:1.0;"/><line style="stroke:#181818;stroke-width:1.0;" x1="485.5" x2="577.5" y1="674.5547" y2="674.5547"/><polygon fill="#181818" points="388.5,684.5547,378.5,688.5547,388.5,692.5547,384.5,688.5547" style="stroke:#181818;stroke-width:1.0;"/><line style="stroke:#181818;stroke-width:1.0;" x1="382.5" x2="474.5" y1="688.5547" y2="688.5547"/><polygon fill="#181818" points="772,713.6875,782,717.6875,772,721.6875,776,717.6875" style="stroke:#181818;stroke-width:1.0;"/><line style="stroke:#181818;stroke-width:1.0;" x1="377.5" x2="778" y1="717.6875" y2="717.6875"/><text fill="#000000" font-family="sans-serif" font-size="13" lengthAdjust="spacing" textLength="101" x="384.5" y="712.6216">releaseEvents()</text><polygon fill="#181818" points="388.5,742.8203,378.5,746.8203,388.5,750.8203,384.5,746.8203" style="stroke:#181818;stroke-width:1.0;"/><line style="stroke:#181818;stroke-width:1.0;" x1="382.5" x2="788" y1="746.8203" y2="746.8203"/><text fill="#000000" font-family="sans-serif" font-size="13" lengthAdjust="spacing" textLength="44" x="394.5" y="741.7544">events</text><polygon fill="#181818" points="962,771.9531,972,775.9531,962,779.9531,966,775.9531" style="stroke:#181818;stroke-width:1.0;"/><line style="stroke:#181818;stroke-width:1.0;" x1="377.5" x2="968" y1="775.9531" y2="775.9531"/><text fill="#000000" font-family="sans-serif" font-size="13" lengthAdjust="spacing" textLength="108" x="384.5" y="770.8872">dispatch(events)</text><polygon fill="#181818" points="1069.5,785.9531,1079.5,789.9531,1069.5,793.9531,1073.5,789.9531" style="stroke:#181818;stroke-width:1.0;"/><line style="stroke:#181818;stroke-width:1.0;" x1="984" x2="1075.5" y1="789.9531" y2="789.9531"/><polygon fill="#181818" points="144.5,829.9531,134.5,833.9531,144.5,837.9531,140.5,833.9531" style="stroke:#181818;stroke-width:1.0;"/><line style="stroke:#181818;stroke-width:1.0;" x1="138.5" x2="371.5" y1="833.9531" y2="833.9531"/><line style="stroke:#181818;stroke-width:1.0;" x1="133.5" x2="175.5" y1="863.0859" y2="863.0859"/><line style="stroke:#181818;stroke-width:1.0;" x1="175.5" x2="175.5" y1="863.0859" y2="876.0859"/><line style="stroke:#181818;stroke-width:1.0;" x1="134.5" x2="175.5" y1="876.0859" y2="876.0859"/><polygon fill="#181818" points="144.5,872.0859,134.5,876.0859,144.5,880.0859,140.5,876.0859" style="stroke:#181818;stroke-width:1.0;"/><text fill="#000000" font-family="sans-serif" font-size="13" lengthAdjust="spacing" textLength="117" x="140.5" y="858.02">formatResponse()</text><polygon fill="#181818" points="47.5,901.2188,37.5,905.2188,47.5,909.2188,43.5,905.2188" style="stroke:#181818;stroke-width:1.0;"/><line style="stroke:#181818;stroke-width:1.0;" x1="41.5" x2="127.5" y1="905.2188" y2="905.2188"/><text fill="#000000" font-family="sans-serif" font-size="13" lengthAdjust="spacing" textLength="63" x="53.5" y="900.1528">Response</text><!--SRC=[ZLJBRjim4BphAuZuOZUe3qKB63uKSFH00xHeu3YtN6XfdH2LI8MatFZlkw8eQVL8cXl9dTd73CbdaG4xAMMFwZK8IgwjI4N9fMLNUrLPq5UC6zOisIBw5c-YhqFOWPi_Zp9KqcgLvvxGR-T9EsF4asofHS5bvdbkpHP9adm9mxT9Fn3L5lFhUL83tqEfZB1ANvfvkYsIDc4y9js_v6oMY07AzQDbtF8ZDy2YTh68Tl4c2GEGLjYBozLLycVDD0Nkvdk8pnXwb94m9RVfiv_LdVPdNGjfBNPgXPBOP7KqgHP7qAPh9F0MVlvElRc-RXEmBOhoKe6n0OaFqLjsvhd0OU5MbfLThYRGnhmwQsC5Kb8DI42i1bjfEQAqrWqey0efDhjCctohe4KXWQZlE4uuv9o4p6ukjnaM8X0a31qR34muGnJIEYSTmsc8ZFluPnmUs2UMx7__Oklrsa_5jFfhfacSxSCsjIhkq1TXBCYqbiLXndrEKv7TrkKTZTbAv8D4CLTWYtUdlcwae3zlBIKHSZC7pMjugllMlPajmvTxmwWjC_mC_t6c0ttGYeUxQ7U8YGVlQHPamF5nd77EaT2pAb8umKv5rP03TkOUfI4Azcw02z64Ot_6BtfmHJD_lcpoh88nkjQHFFTUei78FO8UZtBHflfNIWcjFE_y42Ub2sxtO4hyYM3oHVXVgFvi6WHDtqF_0G00]--></g></svg>