<?xml version="1.0" encoding="us-ascii" standalone="no"?><svg xmlns="http://www.w3.org/2000/svg" xmlns:xlink="http://www.w3.org/1999/xlink" contentStyleType="text/css" height="360px" preserveAspectRatio="none" style="width:355px;height:360px;background:#FFFFFF;" version="1.1" viewBox="0 0 355 360" width="355px" zoomAndPan="magnify"><defs/><g><!--cluster Fence--><g id="cluster_Fence"><path d="M8.5,6 L55.5,6 A3.75,3.75 0 0 1 58,8.5 L65,28.2969 L157.5,28.2969 A2.5,2.5 0 0 1 160,30.7969 L160,326.5 A2.5,2.5 0 0 1 157.5,329 L8.5,329 A2.5,2.5 0 0 1 6,326.5 L6,8.5 A2.5,2.5 0 0 1 8.5,6 " fill="none" style="stroke:#000000;stroke-width:1.5;"/><line style="stroke:#000000;stroke-width:1.5;" x1="6" x2="65" y1="28.2969" y2="28.2969"/><text fill="#000000" font-family="sans-serif" font-size="14" font-weight="bold" lengthAdjust="spacing" textLength="46" x="10" y="20.9951">Fence</text></g><!--cluster ALICE--><g id="cluster_ALICE"><path d="M186.5,146 L231.5,146 A3.75,3.75 0 0 1 234,148.5 L241,168.2969 L345.5,168.2969 A2.5,2.5 0 0 1 348,170.7969 L348,350.5 A2.5,2.5 0 0 1 345.5,353 L186.5,353 A2.5,2.5 0 0 1 184,350.5 L184,148.5 A2.5,2.5 0 0 1 186.5,146 " fill="none" style="stroke:#000000;stroke-width:1.5;"/><line style="stroke:#000000;stroke-width:1.5;" x1="184" x2="241" y1="168.2969" y2="168.2969"/><text fill="#000000" font-family="sans-serif" font-size="14" font-weight="bold" lengthAdjust="spacing" textLength="44" x="188" y="160.9951">ALICE</text></g><!--cluster Membership--><g id="cluster_Membership"><path d="M210.5,189 L309.5,189 A3.75,3.75 0 0 1 312,191.5 L319,211.2969 L321.5,211.2969 A2.5,2.5 0 0 1 324,213.7969 L324,326.5 A2.5,2.5 0 0 1 321.5,329 L210.5,329 A2.5,2.5 0 0 1 208,326.5 L208,191.5 A2.5,2.5 0 0 1 210.5,189 " fill="none" style="stroke:#000000;stroke-width:1.5;"/><line style="stroke:#000000;stroke-width:1.5;" x1="208" x2="319" y1="211.2969" y2="211.2969"/><text fill="#000000" font-family="sans-serif" font-size="14" font-weight="bold" lengthAdjust="spacing" textLength="98" x="212" y="203.9951">Membership</text></g><!--class Content--><g id="elem_Content"><rect codeLine="2" fill="#F1F1F1" height="88.8906" id="Content" rx="2.5" ry="2.5" style="stroke:#181818;stroke-width:0.5;" width="122" x="22" y="41"/><ellipse cx="52.3" cy="57" fill="#A9DCDF" rx="11" ry="11" style="stroke:#181818;stroke-width:1.0;"/><path d="M54.3781,58.8125 L54.7688,59.7969 L54.3781,59.7969 C53.925,59.7969 53.8156,59.8125 53.6594,59.9219 C53.4094,60.0781 53.2531,60.3594 53.2531,60.6563 C53.2531,60.9219 53.3938,61.1719 53.6125,61.3281 C53.7531,61.4531 53.9563,61.5 54.3781,61.5 L56.7375,61.5 C57.0969,61.5 57.3156,61.4688 57.4563,61.375 C57.7063,61.2344 57.8625,60.9375 57.8625,60.6563 C57.8625,60.375 57.7219,60.125 57.5031,59.9688 C57.3313,59.8281 57.175,59.7969 56.7063,59.7969 L53.3156,51.5938 L49.6438,51.5938 C49.1906,51.5938 49.0656,51.6094 48.9094,51.7031 C48.6594,51.875 48.5031,52.1563 48.5031,52.4375 C48.5031,52.7188 48.6438,52.9688 48.8625,53.1406 C49.0344,53.25 49.2063,53.2813 49.6438,53.2813 L50.7219,53.2813 L48.0813,59.7969 C47.6594,59.7969 47.5031,59.8125 47.3469,59.9219 C47.0969,60.0781 46.9406,60.3594 46.9406,60.6563 C46.9406,61.2188 47.3156,61.5 48.0656,61.5 L50.3313,61.5 C50.6906,61.5 50.9094,61.4688 51.0344,61.375 C51.3,61.2344 51.4406,60.9375 51.4406,60.6563 C51.4406,60.375 51.3156,60.125 51.0969,59.9531 C50.925,59.8281 50.7844,59.7969 50.3313,59.7969 L49.9406,59.7969 L50.3313,58.8125 L54.3781,58.8125 Z M53.675,57.1094 L51.0031,57.1094 L52.3469,53.8438 L53.675,57.1094 Z " fill="#000000"/><text fill="#000000" font-family="sans-serif" font-size="14" font-style="italic" lengthAdjust="spacing" textLength="56" x="69.7" y="61.8467">Content</text><line style="stroke:#181818;stroke-width:0.5;" x1="23" x2="143" y1="73" y2="73"/><ellipse cx="33" cy="86.6484" fill="#84BE84" rx="3" ry="3" style="stroke:#038048;stroke-width:1.0;"/><text fill="#000000" font-family="sans-serif" font-size="14" font-style="italic" lengthAdjust="spacing" textLength="58" x="42" y="89.9951">render()</text><polygon fill="#FFFF44" points="33,97.9453,37,101.9453,33,105.9453,29,101.9453" style="stroke:#B38D22;stroke-width:1.0;"/><text fill="#000000" font-family="sans-serif" font-size="14" font-style="italic" lengthAdjust="spacing" textLength="96" x="42" y="106.292">validate(json)</text><polygon fill="#FFFF44" points="33,114.2422,37,118.2422,33,122.2422,29,118.2422" style="stroke:#B38D22;stroke-width:1.0;"/><text fill="#000000" font-family="sans-serif" font-size="14" font-style="italic" lengthAdjust="spacing" textLength="32" x="42" y="122.5889">init()</text></g><!--class BaseProfile--><g id="elem_BaseProfile"><rect codeLine="8" fill="#F1F1F1" height="88.8906" id="BaseProfile" rx="2.5" ry="2.5" style="stroke:#181818;stroke-width:0.5;" width="122" x="22" y="224"/><ellipse cx="41.05" cy="240" fill="#ADD1B2" rx="11" ry="11" style="stroke:#181818;stroke-width:1.0;"/><path d="M43.3938,235.6719 C42.4563,235.2344 41.8625,235.0938 40.9875,235.0938 C38.3625,235.0938 36.3625,237.1719 36.3625,239.8906 L36.3625,241.0156 C36.3625,243.5938 38.4719,245.4844 41.3625,245.4844 C42.5813,245.4844 43.7375,245.1875 44.4875,244.6406 C45.0656,244.2344 45.3938,243.7813 45.3938,243.3906 C45.3938,242.9375 45.0031,242.5469 44.5344,242.5469 C44.3156,242.5469 44.1125,242.625 43.925,242.8125 C43.4719,243.2969 43.4719,243.2969 43.2844,243.3906 C42.8625,243.6563 42.175,243.7813 41.4094,243.7813 C39.3625,243.7813 38.0656,242.6875 38.0656,240.9844 L38.0656,239.8906 C38.0656,238.1094 39.3156,236.7969 41.05,236.7969 C41.6281,236.7969 42.2375,236.9531 42.7063,237.2031 C43.1906,237.4844 43.3625,237.7031 43.4563,238.1094 C43.5188,238.5156 43.55,238.6406 43.6906,238.7656 C43.8313,238.9063 44.0656,239.0156 44.2844,239.0156 C44.55,239.0156 44.8156,238.875 44.9875,238.6563 C45.0969,238.5 45.1281,238.3125 45.1281,237.8906 L45.1281,236.4688 C45.1281,236.0313 45.1125,235.9063 45.0188,235.75 C44.8625,235.4844 44.5813,235.3438 44.2844,235.3438 C43.9875,235.3438 43.7844,235.4375 43.5656,235.75 L43.3938,235.6719 Z " fill="#000000"/><text fill="#000000" font-family="sans-serif" font-size="14" lengthAdjust="spacing" textLength="81" x="55.95" y="244.8467">BaseProfile</text><line style="stroke:#181818;stroke-width:0.5;" x1="23" x2="143" y1="256" y2="256"/><ellipse cx="33" cy="269.6484" fill="#84BE84" rx="3" ry="3" style="stroke:#038048;stroke-width:1.0;"/><text fill="#000000" font-family="sans-serif" font-size="14" lengthAdjust="spacing" textLength="58" x="42" y="272.9951">render()</text><polygon fill="#FFFF44" points="33,280.9453,37,284.9453,33,288.9453,29,284.9453" style="stroke:#B38D22;stroke-width:1.0;"/><text fill="#000000" font-family="sans-serif" font-size="14" lengthAdjust="spacing" textLength="96" x="42" y="289.292">validate(json)</text><polygon fill="#FFFF44" points="33,297.2422,37,301.2422,33,305.2422,29,301.2422" style="stroke:#B38D22;stroke-width:1.0;"/><text fill="#000000" font-family="sans-serif" font-size="14" lengthAdjust="spacing" textLength="34" x="42" y="305.5889">init()</text></g><!--class Profile--><g id="elem_Profile"><rect codeLine="15" fill="#F1F1F1" height="88.8906" id="Profile" rx="2.5" ry="2.5" style="stroke:#181818;stroke-width:0.5;" width="84" x="224" y="224"/><ellipse cx="241.25" cy="240" fill="#ADD1B2" rx="11" ry="11" style="stroke:#181818;stroke-width:1.0;"/><path d="M243.5938,235.6719 C242.6563,235.2344 242.0625,235.0938 241.1875,235.0938 C238.5625,235.0938 236.5625,237.1719 236.5625,239.8906 L236.5625,241.0156 C236.5625,243.5938 238.6719,245.4844 241.5625,245.4844 C242.7813,245.4844 243.9375,245.1875 244.6875,244.6406 C245.2656,244.2344 245.5938,243.7813 245.5938,243.3906 C245.5938,242.9375 245.2031,242.5469 244.7344,242.5469 C244.5156,242.5469 244.3125,242.625 244.125,242.8125 C243.6719,243.2969 243.6719,243.2969 243.4844,243.3906 C243.0625,243.6563 242.375,243.7813 241.6094,243.7813 C239.5625,243.7813 238.2656,242.6875 238.2656,240.9844 L238.2656,239.8906 C238.2656,238.1094 239.5156,236.7969 241.25,236.7969 C241.8281,236.7969 242.4375,236.9531 242.9063,237.2031 C243.3906,237.4844 243.5625,237.7031 243.6563,238.1094 C243.7188,238.5156 243.75,238.6406 243.8906,238.7656 C244.0313,238.9063 244.2656,239.0156 244.4844,239.0156 C244.75,239.0156 245.0156,238.875 245.1875,238.6563 C245.2969,238.5 245.3281,238.3125 245.3281,237.8906 L245.3281,236.4688 C245.3281,236.0313 245.3125,235.9063 245.2188,235.75 C245.0625,235.4844 244.7813,235.3438 244.4844,235.3438 C244.1875,235.3438 243.9844,235.4375 243.7656,235.75 L243.5938,235.6719 Z " fill="#000000"/><text fill="#000000" font-family="sans-serif" font-size="14" lengthAdjust="spacing" textLength="47" x="255.75" y="244.8467">Profile</text><line style="stroke:#181818;stroke-width:0.5;" x1="225" x2="307" y1="256" y2="256"/><ellipse cx="235" cy="269.6484" fill="#84BE84" rx="3" ry="3" style="stroke:#038048;stroke-width:1.0;"/><text fill="#000000" font-family="sans-serif" font-size="14" lengthAdjust="spacing" textLength="58" x="244" y="272.9951">render()</text><polygon fill="#FFFF44" points="235,280.9453,239,284.9453,235,288.9453,231,284.9453" style="stroke:#B38D22;stroke-width:1.0;"/><text fill="#000000" font-family="sans-serif" font-size="14" lengthAdjust="spacing" textLength="34" x="244" y="289.292">init()</text><polygon fill="#FFFF44" points="235,297.2422,239,301.2422,235,305.2422,231,301.2422" style="stroke:#B38D22;stroke-width:1.0;"/><text fill="#000000" font-family="sans-serif" font-size="14" lengthAdjust="spacing" textLength="43" x="244" y="305.5889">post()</text></g><!--reverse link Content to BaseProfile--><g id="link_Content_BaseProfile"><path codeLine="22" d="M83,150.32 C83,174.625 83,201.749 83,223.775 " fill="none" id="Content-backto-BaseProfile" style="stroke:#181818;stroke-width:1.0;"/><polygon fill="none" points="76.0001,150.315,83,130.315,90,150.315,76.0001,150.315" style="stroke:#181818;stroke-width:1.0;"/></g><!--reverse link BaseProfile to Profile--><g id="link_BaseProfile_Profile"><path codeLine="23" d="M164.307,268.5 C184.08,268.5 203.854,268.5 223.627,268.5 " fill="none" id="BaseProfile-backto-Profile" style="stroke:#181818;stroke-width:1.0;"/><polygon fill="none" points="164.119,275.4999,144.119,268.5,164.119,261.5,164.119,275.4999" style="stroke:#181818;stroke-width:1.0;"/></g><!--SRC=[POz12i8m44NNcLCCT5EHzWHkL1G41QymJKSRRPEG145gxsvhhKJT3VEOz_zOabSwCsvPIyOM11K-E981PKtUuzhem3eCHBGJwt3kM9ViqjdtEhbHhKeAd5wyqRzGQHM62-m0nAXVaUUZCoTLly95xFsNlGq2H0UzOrGizxlr9ZzmKx3pbR9vv8jqd_J46ZyClG2cxnQFB8kxGDohXox3YK2bIaPkRBXZCuO-0G00]--></g></svg>