<?xml version="1.0" encoding="us-ascii" standalone="no"?><svg xmlns="http://www.w3.org/2000/svg" xmlns:xlink="http://www.w3.org/1999/xlink" contentStyleType="text/css" height="251px" preserveAspectRatio="none" style="width:245px;height:251px;background:#FFFFFF;" version="1.1" viewBox="0 0 245 251" width="245px" zoomAndPan="magnify"><defs/><g><!--class Task--><g id="elem_Task"><rect codeLine="2" fill="#F1F1F1" height="105.1875" id="Task" rx="2.5" ry="2.5" style="stroke:#181818;stroke-width:0.5;" width="140" x="52" y="7"/><ellipse cx="101.25" cy="23" fill="#ADD1B2" rx="11" ry="11" style="stroke:#181818;stroke-width:1.0;"/><path d="M103.5938,18.6719 C102.6563,18.2344 102.0625,18.0938 101.1875,18.0938 C98.5625,18.0938 96.5625,20.1719 96.5625,22.8906 L96.5625,24.0156 C96.5625,26.5938 98.6719,28.4844 101.5625,28.4844 C102.7813,28.4844 103.9375,28.1875 104.6875,27.6406 C105.2656,27.2344 105.5938,26.7813 105.5938,26.3906 C105.5938,25.9375 105.2031,25.5469 104.7344,25.5469 C104.5156,25.5469 104.3125,25.625 104.125,25.8125 C103.6719,26.2969 103.6719,26.2969 103.4844,26.3906 C103.0625,26.6563 102.375,26.7813 101.6094,26.7813 C99.5625,26.7813 98.2656,25.6875 98.2656,23.9844 L98.2656,22.8906 C98.2656,21.1094 99.5156,19.7969 101.25,19.7969 C101.8281,19.7969 102.4375,19.9531 102.9063,20.2031 C103.3906,20.4844 103.5625,20.7031 103.6563,21.1094 C103.7188,21.5156 103.75,21.6406 103.8906,21.7656 C104.0313,21.9063 104.2656,22.0156 104.4844,22.0156 C104.75,22.0156 105.0156,21.875 105.1875,21.6563 C105.2969,21.5 105.3281,21.3125 105.3281,20.8906 L105.3281,19.4688 C105.3281,19.0313 105.3125,18.9063 105.2188,18.75 C105.0625,18.4844 104.7813,18.3438 104.4844,18.3438 C104.1875,18.3438 103.9844,18.4375 103.7656,18.75 L103.5938,18.6719 Z " fill="#000000"/><text fill="#000000" font-family="sans-serif" font-size="14" lengthAdjust="spacing" textLength="33" x="121.75" y="27.8467">Task</text><line style="stroke:#181818;stroke-width:0.5;" x1="53" x2="191" y1="39" y2="39"/><text fill="#000000" font-family="sans-serif" font-size="14" lengthAdjust="spacing" textLength="37" x="58" y="55.9951">int id</text><text fill="#000000" font-family="sans-serif" font-size="14" lengthAdjust="spacing" textLength="86" x="58" y="72.292">string name</text><text fill="#000000" font-family="sans-serif" font-size="14" lengthAdjust="spacing" textLength="128" x="58" y="88.5889">string description</text><text fill="#000000" font-family="sans-serif" font-size="14" lengthAdjust="spacing" textLength="125" x="58" y="104.8857">string externalUrl</text></g><!--class Activity--><g id="elem_Activity"><rect codeLine="9" fill="#F1F1F1" height="72.5938" id="Activity" rx="2.5" ry="2.5" style="stroke:#181818;stroke-width:0.5;" width="98" x="7" y="172"/><ellipse cx="26.5" cy="188" fill="#ADD1B2" rx="11" ry="11" style="stroke:#181818;stroke-width:1.0;"/><path d="M28.8438,183.6719 C27.9063,183.2344 27.3125,183.0938 26.4375,183.0938 C23.8125,183.0938 21.8125,185.1719 21.8125,187.8906 L21.8125,189.0156 C21.8125,191.5938 23.9219,193.4844 26.8125,193.4844 C28.0313,193.4844 29.1875,193.1875 29.9375,192.6406 C30.5156,192.2344 30.8438,191.7813 30.8438,191.3906 C30.8438,190.9375 30.4531,190.5469 29.9844,190.5469 C29.7656,190.5469 29.5625,190.625 29.375,190.8125 C28.9219,191.2969 28.9219,191.2969 28.7344,191.3906 C28.3125,191.6563 27.625,191.7813 26.8594,191.7813 C24.8125,191.7813 23.5156,190.6875 23.5156,188.9844 L23.5156,187.8906 C23.5156,186.1094 24.7656,184.7969 26.5,184.7969 C27.0781,184.7969 27.6875,184.9531 28.1563,185.2031 C28.6406,185.4844 28.8125,185.7031 28.9063,186.1094 C28.9688,186.5156 29,186.6406 29.1406,186.7656 C29.2813,186.9063 29.5156,187.0156 29.7344,187.0156 C30,187.0156 30.2656,186.875 30.4375,186.6563 C30.5469,186.5 30.5781,186.3125 30.5781,185.8906 L30.5781,184.4688 C30.5781,184.0313 30.5625,183.9063 30.4688,183.75 C30.3125,183.4844 30.0313,183.3438 29.7344,183.3438 C29.4375,183.3438 29.2344,183.4375 29.0156,183.75 L28.8438,183.6719 Z " fill="#000000"/><text fill="#000000" font-family="sans-serif" font-size="14" lengthAdjust="spacing" textLength="56" x="41.5" y="192.8467">Activity</text><line style="stroke:#181818;stroke-width:0.5;" x1="8" x2="104" y1="204" y2="204"/><text fill="#000000" font-family="sans-serif" font-size="14" lengthAdjust="spacing" textLength="37" x="13" y="220.9951">int id</text><text fill="#000000" font-family="sans-serif" font-size="14" lengthAdjust="spacing" textLength="86" x="13" y="237.292">string name</text></g><!--class Class--><g id="elem_Class"><rect codeLine="14" fill="#F1F1F1" height="72.5938" id="Class" rx="2.5" ry="2.5" style="stroke:#181818;stroke-width:0.5;" width="98" x="140" y="172"/><ellipse cx="168.5" cy="188" fill="#ADD1B2" rx="11" ry="11" style="stroke:#181818;stroke-width:1.0;"/><path d="M170.8438,183.6719 C169.9063,183.2344 169.3125,183.0938 168.4375,183.0938 C165.8125,183.0938 163.8125,185.1719 163.8125,187.8906 L163.8125,189.0156 C163.8125,191.5938 165.9219,193.4844 168.8125,193.4844 C170.0313,193.4844 171.1875,193.1875 171.9375,192.6406 C172.5156,192.2344 172.8438,191.7813 172.8438,191.3906 C172.8438,190.9375 172.4531,190.5469 171.9844,190.5469 C171.7656,190.5469 171.5625,190.625 171.375,190.8125 C170.9219,191.2969 170.9219,191.2969 170.7344,191.3906 C170.3125,191.6563 169.625,191.7813 168.8594,191.7813 C166.8125,191.7813 165.5156,190.6875 165.5156,188.9844 L165.5156,187.8906 C165.5156,186.1094 166.7656,184.7969 168.5,184.7969 C169.0781,184.7969 169.6875,184.9531 170.1563,185.2031 C170.6406,185.4844 170.8125,185.7031 170.9063,186.1094 C170.9688,186.5156 171,186.6406 171.1406,186.7656 C171.2813,186.9063 171.5156,187.0156 171.7344,187.0156 C172,187.0156 172.2656,186.875 172.4375,186.6563 C172.5469,186.5 172.5781,186.3125 172.5781,185.8906 L172.5781,184.4688 C172.5781,184.0313 172.5625,183.9063 172.4688,183.75 C172.3125,183.4844 172.0313,183.3438 171.7344,183.3438 C171.4375,183.3438 171.2344,183.4375 171.0156,183.75 L170.8438,183.6719 Z " fill="#000000"/><text fill="#000000" font-family="sans-serif" font-size="14" lengthAdjust="spacing" textLength="36" x="185.5" y="192.8467">Class</text><line style="stroke:#181818;stroke-width:0.5;" x1="141" x2="237" y1="204" y2="204"/><text fill="#000000" font-family="sans-serif" font-size="14" lengthAdjust="spacing" textLength="37" x="146" y="220.9951">int id</text><text fill="#000000" font-family="sans-serif" font-size="14" lengthAdjust="spacing" textLength="86" x="146" y="237.292">string name</text></g><!--link Task to Activity--><g id="link_Task_Activity"><path codeLine="19" d="M98.731,112.327 C89.898,132 80.0437,153.948 72.0261,171.8055 " fill="none" id="Task-Activity" style="stroke:#181818;stroke-width:1.0;"/><text fill="#000000" font-family="sans-serif" font-size="13" lengthAdjust="spacing" textLength="23" x="71.2761" y="132.1198">0..*</text><text fill="#000000" font-family="sans-serif" font-size="13" lengthAdjust="spacing" textLength="8" x="66.1682" y="161.0477">1</text></g><!--link Task to Class--><g id="link_Task_Class"><path codeLine="20" d="M145.622,112.327 C154.588,132 164.592,153.948 172.731,171.8055 " fill="none" id="Task-Class" style="stroke:#181818;stroke-width:1.0;"/><text fill="#000000" font-family="sans-serif" font-size="13" lengthAdjust="spacing" textLength="23" x="124.1751" y="132.1198">0..*</text><text fill="#000000" font-family="sans-serif" font-size="13" lengthAdjust="spacing" textLength="8" x="161.1206" y="161.0477">1</text></g><!--SRC=[VOxH2i8m34MVswy8VHGsz1F4Nz0Fg6tOWcqtaY0JsRzR1tClifUGcrpElJfqg3qolAq9oOl0rSlZgmmL1Ofr4MKg7HIVSLCH9J2DIaFPZZWfSl7fnicQsPgLUGvAJzBN3dUsg_cop3rdvIujtR5j3mwQ1jp9_KB-FXUehI4zHGJCOosJCT-HvGC0]--></g></svg>