<?xml version="1.0" encoding="us-ascii" standalone="no"?><svg xmlns="http://www.w3.org/2000/svg" xmlns:xlink="http://www.w3.org/1999/xlink" contentStyleType="text/css" height="818px" preserveAspectRatio="none" style="width:944px;height:818px;background:#FFFFFF;" version="1.1" viewBox="0 0 944 818" width="944px" zoomAndPan="magnify"><defs/><g><rect fill="#FFFFFF" height="681.125" style="stroke:#181818;stroke-width:1.0;" width="10" x="116.5" y="112.4297"/><rect fill="#FFFFFF" height="224.6641" style="stroke:#181818;stroke-width:1.0;" width="10" x="206.5" y="141.5625"/><rect fill="#FFFFFF" height="369.0625" style="stroke:#181818;stroke-width:1.0;" width="10" x="206.5" y="395.3594"/><rect fill="#FFFFFF" height="325.9297" style="stroke:#181818;stroke-width:1.0;" width="10" x="354.5" y="424.4922"/><rect fill="#FFFFFF" height="198.5313" style="stroke:#181818;stroke-width:1.0;" width="10" x="539" y="537.8906"/><rect fill="#FFFFFF" height="155.3984" style="stroke:#181818;stroke-width:1.0;" width="10" x="738.5" y="567.0234"/><rect fill="#ADD8E6" height="43.1328" style="stroke:#181818;stroke-width:1.0;" width="10" x="884" y="665.2891"/><line style="stroke:#181818;stroke-width:0.5;stroke-dasharray:5.0,5.0;" x1="29" x2="29" y1="81.2969" y2="811.5547"/><line style="stroke:#181818;stroke-width:0.5;stroke-dasharray:5.0,5.0;" x1="121" x2="121" y1="81.2969" y2="811.5547"/><line style="stroke:#181818;stroke-width:0.5;stroke-dasharray:5.0,5.0;" x1="211.5" x2="211.5" y1="81.2969" y2="811.5547"/><line style="stroke:#181818;stroke-width:0.5;stroke-dasharray:5.0,5.0;" x1="359.5" x2="359.5" y1="81.2969" y2="811.5547"/><line style="stroke:#181818;stroke-width:0.5;stroke-dasharray:5.0,5.0;" x1="543.5" x2="543.5" y1="81.2969" y2="811.5547"/><line style="stroke:#181818;stroke-width:0.5;stroke-dasharray:5.0,5.0;" x1="743.5" x2="743.5" y1="81.2969" y2="811.5547"/><line style="stroke:#181818;stroke-width:0.5;stroke-dasharray:5.0,5.0;" x1="888.5" x2="888.5" y1="81.2969" y2="811.5547"/><text fill="#000000" font-family="sans-serif" font-size="14" lengthAdjust="spacing" textLength="43" x="5" y="77.9951">Client</text><ellipse cx="29.5" cy="13.5" fill="#E2E2F0" rx="8" ry="8" style="stroke:#181818;stroke-width:0.5;"/><path d="M29.5,21.5 L29.5,48.5 M16.5,29.5 L42.5,29.5 M29.5,48.5 L16.5,63.5 M29.5,48.5 L42.5,63.5 " fill="none" style="stroke:#181818;stroke-width:0.5;"/><rect fill="#E2E2F0" height="30.2969" rx="2.5" ry="2.5" style="stroke:#181818;stroke-width:0.5;" width="61" x="91" y="50"/><text fill="#000000" font-family="sans-serif" font-size="14" lengthAdjust="spacing" textLength="47" x="98" y="69.9951">Server</text><rect fill="#E2E2F0" height="30.2969" rx="2.5" ry="2.5" style="stroke:#181818;stroke-width:0.5;" width="50" x="186.5" y="50"/><text fill="#000000" font-family="sans-serif" font-size="14" lengthAdjust="spacing" textLength="36" x="193.5" y="69.9951">Frapi</text><rect fill="#FFA500" height="30.2969" rx="2.5" ry="2.5" style="stroke:#181818;stroke-width:0.5;" width="142" x="288.5" y="50"/><text fill="#000000" font-family="sans-serif" font-size="14" lengthAdjust="spacing" textLength="128" x="295.5" y="69.9951">Setup Middleware</text><rect fill="#FFA500" height="30.2969" rx="2.5" ry="2.5" style="stroke:#181818;stroke-width:0.5;" width="207" x="440.5" y="50"/><text fill="#000000" font-family="sans-serif" font-size="14" lengthAdjust="spacing" textLength="193" x="447.5" y="69.9951">Authentication Middleware</text><rect fill="#FFA500" height="30.2969" rx="2.5" ry="2.5" style="stroke:#181818;stroke-width:0.5;" width="172" x="657.5" y="50"/><text fill="#000000" font-family="sans-serif" font-size="14" lengthAdjust="spacing" textLength="158" x="664.5" y="69.9951">Endpoints Middleware</text><rect fill="#E2E2F0" height="30.2969" rx="2.5" ry="2.5" style="stroke:#181818;stroke-width:0.5;" width="99" x="839.5" y="50"/><text fill="#000000" font-family="sans-serif" font-size="14" lengthAdjust="spacing" textLength="85" x="846.5" y="69.9951">Route Logic</text><rect fill="#FFFFFF" height="681.125" style="stroke:#181818;stroke-width:1.0;" width="10" x="116.5" y="112.4297"/><rect fill="#FFFFFF" height="224.6641" style="stroke:#181818;stroke-width:1.0;" width="10" x="206.5" y="141.5625"/><rect fill="#FFFFFF" height="369.0625" style="stroke:#181818;stroke-width:1.0;" width="10" x="206.5" y="395.3594"/><rect fill="#FFFFFF" height="325.9297" style="stroke:#181818;stroke-width:1.0;" width="10" x="354.5" y="424.4922"/><rect fill="#FFFFFF" height="198.5313" style="stroke:#181818;stroke-width:1.0;" width="10" x="539" y="537.8906"/><rect fill="#FFFFFF" height="155.3984" style="stroke:#181818;stroke-width:1.0;" width="10" x="738.5" y="567.0234"/><rect fill="#ADD8E6" height="43.1328" style="stroke:#181818;stroke-width:1.0;" width="10" x="884" y="665.2891"/><polygon fill="#181818" points="104.5,108.4297,114.5,112.4297,104.5,116.4297,108.5,112.4297" style="stroke:#181818;stroke-width:1.0;"/><line style="stroke:#181818;stroke-width:1.0;" x1="29.5" x2="110.5" y1="112.4297" y2="112.4297"/><text fill="#000000" font-family="sans-serif" font-size="13" lengthAdjust="spacing" textLength="53" x="36.5" y="107.3638">Request</text><polygon fill="#181818" points="194.5,137.5625,204.5,141.5625,194.5,145.5625,198.5,141.5625" style="stroke:#181818;stroke-width:1.0;"/><line style="stroke:#181818;stroke-width:1.0;" x1="126.5" x2="200.5" y1="141.5625" y2="141.5625"/><text fill="#000000" font-family="sans-serif" font-size="13" lengthAdjust="spacing" textLength="61" x="133.5" y="136.4966">new Api()</text><line style="stroke:#181818;stroke-width:1.0;" x1="216.5" x2="258.5" y1="170.6953" y2="170.6953"/><line style="stroke:#181818;stroke-width:1.0;" x1="258.5" x2="258.5" y1="170.6953" y2="183.6953"/><line style="stroke:#181818;stroke-width:1.0;" x1="217.5" x2="258.5" y1="183.6953" y2="183.6953"/><polygon fill="#181818" points="227.5,179.6953,217.5,183.6953,227.5,187.6953,223.5,183.6953" style="stroke:#181818;stroke-width:1.0;"/><text fill="#000000" font-family="sans-serif" font-size="13" lengthAdjust="spacing" textLength="110" x="223.5" y="165.6294">Load dotenv files</text><line style="stroke:#181818;stroke-width:1.0;" x1="216.5" x2="258.5" y1="212.8281" y2="212.8281"/><line style="stroke:#181818;stroke-width:1.0;" x1="258.5" x2="258.5" y1="212.8281" y2="225.8281"/><line style="stroke:#181818;stroke-width:1.0;" x1="217.5" x2="258.5" y1="225.8281" y2="225.8281"/><polygon fill="#181818" points="227.5,221.8281,217.5,225.8281,227.5,229.8281,223.5,225.8281" style="stroke:#181818;stroke-width:1.0;"/><text fill="#000000" font-family="sans-serif" font-size="13" lengthAdjust="spacing" textLength="60" x="223.5" y="207.7622">Setup log</text><line style="stroke:#181818;stroke-width:1.0;" x1="216.5" x2="258.5" y1="254.9609" y2="254.9609"/><line style="stroke:#181818;stroke-width:1.0;" x1="258.5" x2="258.5" y1="254.9609" y2="267.9609"/><line style="stroke:#181818;stroke-width:1.0;" x1="217.5" x2="258.5" y1="267.9609" y2="267.9609"/><polygon fill="#181818" points="227.5,263.9609,217.5,267.9609,227.5,271.9609,223.5,267.9609" style="stroke:#181818;stroke-width:1.0;"/><text fill="#000000" font-family="sans-serif" font-size="13" lengthAdjust="spacing" textLength="86" x="223.5" y="249.895">Load settings</text><line style="stroke:#181818;stroke-width:1.0;" x1="216.5" x2="258.5" y1="297.0938" y2="297.0938"/><line style="stroke:#181818;stroke-width:1.0;" x1="258.5" x2="258.5" y1="297.0938" y2="310.0938"/><line style="stroke:#181818;stroke-width:1.0;" x1="217.5" x2="258.5" y1="310.0938" y2="310.0938"/><polygon fill="#181818" points="227.5,306.0938,217.5,310.0938,227.5,314.0938,223.5,310.0938" style="stroke:#181818;stroke-width:1.0;"/><text fill="#000000" font-family="sans-serif" font-size="13" lengthAdjust="spacing" textLength="123" x="223.5" y="292.0278">Setup middlewares</text><line style="stroke:#181818;stroke-width:1.0;" x1="216.5" x2="258.5" y1="339.2266" y2="339.2266"/><line style="stroke:#181818;stroke-width:1.0;" x1="258.5" x2="258.5" y1="339.2266" y2="352.2266"/><line style="stroke:#181818;stroke-width:1.0;" x1="217.5" x2="258.5" y1="352.2266" y2="352.2266"/><polygon fill="#181818" points="227.5,348.2266,217.5,352.2266,227.5,356.2266,223.5,352.2266" style="stroke:#181818;stroke-width:1.0;"/><text fill="#000000" font-family="sans-serif" font-size="13" lengthAdjust="spacing" textLength="124" x="223.5" y="334.1606">Setup error handler</text><polygon fill="#181818" points="137.5,362.2266,127.5,366.2266,137.5,370.2266,133.5,366.2266" style="stroke:#181818;stroke-width:1.0;"/><line style="stroke:#181818;stroke-width:1.0;stroke-dasharray:2.0,2.0;" x1="131.5" x2="210.5" y1="366.2266" y2="366.2266"/><polygon fill="#181818" points="194.5,391.3594,204.5,395.3594,194.5,399.3594,198.5,395.3594" style="stroke:#181818;stroke-width:1.0;"/><line style="stroke:#181818;stroke-width:1.0;" x1="126.5" x2="200.5" y1="395.3594" y2="395.3594"/><text fill="#000000" font-family="sans-serif" font-size="13" lengthAdjust="spacing" textLength="31" x="133.5" y="390.2935">run()</text><polygon fill="#181818" points="342.5,420.4922,352.5,424.4922,342.5,428.4922,346.5,424.4922" style="stroke:#181818;stroke-width:1.0;"/><line style="stroke:#181818;stroke-width:1.0;" x1="216.5" x2="348.5" y1="424.4922" y2="424.4922"/><text fill="#000000" font-family="sans-serif" font-size="13" lengthAdjust="spacing" textLength="31" x="223.5" y="419.4263">call()</text><line style="stroke:#181818;stroke-width:1.0;" x1="364.5" x2="406.5" y1="453.625" y2="453.625"/><line style="stroke:#181818;stroke-width:1.0;" x1="406.5" x2="406.5" y1="453.625" y2="466.625"/><line style="stroke:#181818;stroke-width:1.0;" x1="365.5" x2="406.5" y1="466.625" y2="466.625"/><polygon fill="#181818" points="375.5,462.625,365.5,466.625,375.5,470.625,371.5,466.625" style="stroke:#181818;stroke-width:1.0;"/><text fill="#000000" font-family="sans-serif" font-size="13" lengthAdjust="spacing" textLength="83" x="371.5" y="448.5591">Enable CORS</text><line style="stroke:#181818;stroke-width:1.0;" x1="364.5" x2="406.5" y1="495.7578" y2="495.7578"/><line style="stroke:#181818;stroke-width:1.0;" x1="406.5" x2="406.5" y1="495.7578" y2="508.7578"/><line style="stroke:#181818;stroke-width:1.0;" x1="365.5" x2="406.5" y1="508.7578" y2="508.7578"/><polygon fill="#181818" points="375.5,504.7578,365.5,508.7578,375.5,512.7578,371.5,508.7578" style="stroke:#181818;stroke-width:1.0;"/><text fill="#000000" font-family="sans-serif" font-size="13" lengthAdjust="spacing" textLength="134" x="371.5" y="490.6919">Connect to database</text><polygon fill="#181818" points="527,533.8906,537,537.8906,527,541.8906,531,537.8906" style="stroke:#181818;stroke-width:1.0;"/><line style="stroke:#181818;stroke-width:1.0;" x1="364.5" x2="533" y1="537.8906" y2="537.8906"/><text fill="#000000" font-family="sans-serif" font-size="13" lengthAdjust="spacing" textLength="31" x="371.5" y="532.8247">call()</text><polygon fill="#181818" points="726.5,563.0234,736.5,567.0234,726.5,571.0234,730.5,567.0234" style="stroke:#181818;stroke-width:1.0;"/><line style="stroke:#181818;stroke-width:1.0;" x1="549" x2="732.5" y1="567.0234" y2="567.0234"/><text fill="#000000" font-family="sans-serif" font-size="13" lengthAdjust="spacing" textLength="31" x="556" y="561.9575">call()</text><line style="stroke:#181818;stroke-width:1.0;" x1="748.5" x2="790.5" y1="596.1563" y2="596.1563"/><line style="stroke:#181818;stroke-width:1.0;" x1="790.5" x2="790.5" y1="596.1563" y2="609.1563"/><line style="stroke:#181818;stroke-width:1.0;" x1="749.5" x2="790.5" y1="609.1563" y2="609.1563"/><polygon fill="#181818" points="759.5,605.1563,749.5,609.1563,759.5,613.1563,755.5,609.1563" style="stroke:#181818;stroke-width:1.0;"/><text fill="#000000" font-family="sans-serif" font-size="13" lengthAdjust="spacing" textLength="120" x="755.5" y="591.0903">Register endpoints</text><line style="stroke:#181818;stroke-width:1.0;" x1="748.5" x2="790.5" y1="638.2891" y2="638.2891"/><line style="stroke:#181818;stroke-width:1.0;" x1="790.5" x2="790.5" y1="638.2891" y2="651.2891"/><line style="stroke:#181818;stroke-width:1.0;" x1="749.5" x2="790.5" y1="651.2891" y2="651.2891"/><polygon fill="#181818" points="759.5,647.2891,749.5,651.2891,759.5,655.2891,755.5,651.2891" style="stroke:#181818;stroke-width:1.0;"/><text fill="#000000" font-family="sans-serif" font-size="13" lengthAdjust="spacing" textLength="93" x="755.5" y="633.2231">Authorize user</text><polygon fill="#181818" points="872,661.2891,882,665.2891,872,669.2891,876,665.2891" style="stroke:#181818;stroke-width:1.0;"/><line style="stroke:#181818;stroke-width:1.0;" x1="748.5" x2="878" y1="665.2891" y2="665.2891"/><polygon fill="#181818" points="227.5,690.4219,217.5,694.4219,227.5,698.4219,223.5,694.4219" style="stroke:#181818;stroke-width:1.0;"/><line style="stroke:#181818;stroke-width:1.0;" x1="221.5" x2="883" y1="694.4219" y2="694.4219"/><text fill="#000000" font-family="sans-serif" font-size="13" lengthAdjust="spacing" textLength="63" x="233.5" y="689.356">Response</text><polygon fill="#181818" points="759.5,704.4219,749.5,708.4219,759.5,712.4219,755.5,708.4219" style="stroke:#181818;stroke-width:1.0;"/><line style="stroke:#181818;stroke-width:1.0;stroke-dasharray:2.0,2.0;" x1="753.5" x2="888" y1="708.4219" y2="708.4219"/><polygon fill="#181818" points="560,718.4219,550,722.4219,560,726.4219,556,722.4219" style="stroke:#181818;stroke-width:1.0;"/><line style="stroke:#181818;stroke-width:1.0;stroke-dasharray:2.0,2.0;" x1="554" x2="742.5" y1="722.4219" y2="722.4219"/><polygon fill="#181818" points="375.5,732.4219,365.5,736.4219,375.5,740.4219,371.5,736.4219" style="stroke:#181818;stroke-width:1.0;"/><line style="stroke:#181818;stroke-width:1.0;stroke-dasharray:2.0,2.0;" x1="369.5" x2="543" y1="736.4219" y2="736.4219"/><polygon fill="#181818" points="227.5,746.4219,217.5,750.4219,227.5,754.4219,223.5,750.4219" style="stroke:#181818;stroke-width:1.0;"/><line style="stroke:#181818;stroke-width:1.0;stroke-dasharray:2.0,2.0;" x1="221.5" x2="358.5" y1="750.4219" y2="750.4219"/><polygon fill="#181818" points="137.5,760.4219,127.5,764.4219,137.5,768.4219,133.5,764.4219" style="stroke:#181818;stroke-width:1.0;"/><line style="stroke:#181818;stroke-width:1.0;stroke-dasharray:2.0,2.0;" x1="131.5" x2="210.5" y1="764.4219" y2="764.4219"/><polygon fill="#181818" points="40.5,789.5547,30.5,793.5547,40.5,797.5547,36.5,793.5547" style="stroke:#181818;stroke-width:1.0;"/><line style="stroke:#181818;stroke-width:1.0;stroke-dasharray:2.0,2.0;" x1="34.5" x2="120.5" y1="793.5547" y2="793.5547"/><text fill="#000000" font-family="sans-serif" font-size="13" lengthAdjust="spacing" textLength="63" x="46.5" y="788.4888">Response</text><!--SRC=[XP9DJiCm48NtFiMetO0gBj05KgbWLOIKdi1Dfib8PYROanPnUfouvATjn2hM-zwpzMPIKO5m5D63V1jZSnKFMqV8QchhbNAgBIliqP_GJwGtRskQA8izQbF3EnM5mxFrk00R88bByPPBdFetZLRn9Sgjal1riANtSwzSr4AiuJeoWBkvJ1f5s4b9UMVlJiQall3qVAa9gnMi8SEl1eEQYnPfrpX1nZDiQdfuD4diwJfUQWieH95FS2I7uTQIHkAad4a7L2KkPvEVVUjP2teVDrbPZaPlVDGytw_Y6nxNIF6EvDQvY9BIetMSiZquXEr7jh-5Ms76N4452glsO0CEfcwbuxix8O9XSMCwg1DBkvkIWiOg-2VEUzidnDCFGXFYA2Q-xWTedrpkgApqnJLeaZOQQ8QX5eurBbFy_zD7VW40]--></g></svg>